<svg xmlns="http://www.w3.org/2000/svg" viewBox="0 0 64 64">
<rect width="64" height="64" rx="12" fill="#0a0e14"/>
<line x1="32.0" y1="18.9" x2="32.0" y2="7.0" stroke="hsl(180,55%,70%)" stroke-width="2.4" stroke-linecap="round"/>
<line x1="32.0" y1="7.0" x2="41.5" y2="26.0" stroke="hsl(165,55%,63.75%)" stroke-width="2.4" stroke-linecap="round"/>
<line x1="41.5" y1="26.0" x2="20.1" y2="40.3" stroke="hsl(150,55%,57.5%)" stroke-width="2.4" stroke-linecap="round"/>
<line x1="20.1" y1="40.3" x2="24.9" y2="49.9" stroke="hsl(135,55%,51.25%)" stroke-width="2.4" stroke-linecap="round"/>
<line x1="24.9" y1="49.9" x2="24.9" y2="57.0" stroke="hsl(120,55%,45%)" stroke-width="2.4" stroke-linecap="round"/>
<line x1="24.9" y1="49.9" x2="17.7" y2="54.6" stroke="hsl(120,55%,45%)" stroke-width="2.4" stroke-linecap="round"/>
<line x1="20.1" y1="40.3" x2="24.9" y2="49.9" stroke="hsl(135,55%,51.25%)" stroke-width="2.4" stroke-linecap="round"/>
<line x1="24.9" y1="49.9" x2="17.7" y2="54.6" stroke="hsl(120,55%,45%)" stroke-width="2.4" stroke-linecap="round"/>
<line x1="24.9" y1="49.9" x2="24.9" y2="47.5" stroke="hsl(120,55%,45%)" stroke-width="2.4" stroke-linecap="round"/>
<line x1="41.5" y1="26.0" x2="41.5" y2="18.9" stroke="hsl(150,55%,57.5%)" stroke-width="2.4" stroke-linecap="round"/>
<line x1="41.5" y1="18.9" x2="46.3" y2="28.4" stroke="hsl(135,55%,51.25%)" stroke-width="2.4" stroke-linecap="round"/>
<line x1="46.3" y1="28.4" x2="39.1" y2="33.2" stroke="hsl(120,55%,45%)" stroke-width="2.4" stroke-linecap="round"/>
<line x1="46.3" y1="28.4" x2="46.3" y2="26.0" stroke="hsl(120,55%,45%)" stroke-width="2.4" stroke-linecap="round"/>
<line x1="41.5" y1="18.9" x2="36.8" y2="28.4" stroke="hsl(135,55%,51.25%)" stroke-width="2.4" stroke-linecap="round"/>
<line x1="36.8" y1="28.4" x2="36.8" y2="26.0" stroke="hsl(120,55%,45%)" stroke-width="2.4" stroke-linecap="round"/>
<line x1="36.8" y1="28.4" x2="43.9" y2="33.2" stroke="hsl(120,55%,45%)" stroke-width="2.4" stroke-linecap="round"/>
<line x1="32.0" y1="7.0" x2="22.5" y2="26.0" stroke="hsl(165,55%,63.75%)" stroke-width="2.4" stroke-linecap="round"/>
<line x1="22.5" y1="26.0" x2="22.5" y2="18.9" stroke="hsl(150,55%,57.5%)" stroke-width="2.4" stroke-linecap="round"/>
<line x1="22.5" y1="18.9" x2="27.2" y2="28.4" stroke="hsl(135,55%,51.25%)" stroke-width="2.4" stroke-linecap="round"/>
<line x1="27.2" y1="28.4" x2="20.1" y2="33.2" stroke="hsl(120,55%,45%)" stroke-width="2.4" stroke-linecap="round"/>
<line x1="27.2" y1="28.4" x2="27.2" y2="26.0" stroke="hsl(120,55%,45%)" stroke-width="2.4" stroke-linecap="round"/>
<line x1="22.5" y1="18.9" x2="17.7" y2="28.4" stroke="hsl(135,55%,51.25%)" stroke-width="2.4" stroke-linecap="round"/>
<line x1="17.7" y1="28.4" x2="17.7" y2="26.0" stroke="hsl(120,55%,45%)" stroke-width="2.4" stroke-linecap="round"/>
<line x1="17.7" y1="28.4" x2="24.9" y2="33.2" stroke="hsl(120,55%,45%)" stroke-width="2.4" stroke-linecap="round"/>
<line x1="22.5" y1="26.0" x2="43.9" y2="40.3" stroke="hsl(150,55%,57.5%)" stroke-width="2.4" stroke-linecap="round"/>
<line x1="43.9" y1="40.3" x2="39.1" y2="49.9" stroke="hsl(135,55%,51.25%)" stroke-width="2.4" stroke-linecap="round"/>
<line x1="39.1" y1="49.9" x2="39.1" y2="47.5" stroke="hsl(120,55%,45%)" stroke-width="2.4" stroke-linecap="round"/>
<line x1="39.1" y1="49.9" x2="46.3" y2="54.6" stroke="hsl(120,55%,45%)" stroke-width="2.4" stroke-linecap="round"/>
<line x1="43.9" y1="40.3" x2="39.1" y2="49.9" stroke="hsl(135,55%,51.25%)" stroke-width="2.4" stroke-linecap="round"/>
<line x1="39.1" y1="49.9" x2="46.3" y2="54.6" stroke="hsl(120,55%,45%)" stroke-width="2.4" stroke-linecap="round"/>
<line x1="39.1" y1="49.9" x2="39.1" y2="57.0" stroke="hsl(120,55%,45%)" stroke-width="2.4" stroke-linecap="round"/>
</svg>